<svg width="303" height="258" viewBox="0 0 303 258" fill="none" xmlns="http://www.w3.org/2000/svg">
<g clip-path="url(#clip0_12_6384)">
<g opacity="0.25">
<path d="M161.519 257.634C239.346 257.634 302.437 254.238 302.437 250.05C302.437 245.861 239.346 242.466 161.519 242.466C83.6922 242.466 20.6011 245.861 20.6011 250.05C20.6011 254.238 83.6922 257.634 161.519 257.634Z" fill="#371A45"/>
</g>
<path d="M226.809 175.35C186.481 167.107 145.982 167.39 105.318 175.989C150.536 192.236 191.353 193.14 226.809 175.35Z" fill="#009EFF"/>
<path d="M105.316 177.386C104.671 177.386 104.091 176.936 103.953 176.279C103.794 175.524 104.276 174.784 105.029 174.623C145.861 165.99 186.928 165.774 227.088 173.982C227.844 174.137 228.33 174.874 228.177 175.63C228.022 176.386 227.286 176.872 226.53 176.718C186.746 168.588 146.062 168.802 105.607 177.357C105.51 177.377 105.412 177.387 105.316 177.387V177.386Z" fill="#371A45"/>
<g opacity="0.5">
<path d="M227.969 121.378V175.988C199.885 185.156 170.3 187.243 139.393 183.065C128.074 181.534 116.583 179.16 104.918 175.988V121.378C104.918 55.4514 212.407 51.1432 226.459 108.449C227.442 112.459 227.969 116.767 227.969 121.378Z" fill="#000070"/>
</g>
<g opacity="0.7">
<path d="M224.057 101.19C199.847 55.7725 106.707 63.7503 106.707 125.119V176.467C106.113 176.308 105.514 176.15 104.919 175.987V121.377C104.919 58.3716 203.089 51.6459 224.058 101.19H224.057Z" fill="#F8F8F8"/>
</g>
<path d="M70.9838 225.221L59.7595 243.705C58.3892 245.961 55.3548 246.507 53.285 244.87C51.5761 243.519 51.1157 241.117 52.2031 239.229L63.6972 219.277" fill="#A652FF"/>
<path d="M56.009 247.736C54.5996 247.736 53.2182 247.263 52.0964 246.376C49.6591 244.448 48.9912 240.964 50.5429 238.27L62.037 218.318C62.5663 217.4 63.7393 217.084 64.6556 217.614C65.5728 218.144 65.8882 219.317 65.3589 220.235L53.8648 240.187C53.2564 241.243 53.5187 242.609 54.4741 243.365C55.0378 243.811 55.7383 243.986 56.4453 243.859C57.1522 243.731 57.7476 243.322 58.1206 242.708L69.3449 224.225C69.8947 223.319 71.0743 223.032 71.9794 223.582C72.8845 224.132 73.172 225.312 72.6222 226.218L61.3979 244.702C60.4593 246.247 58.902 247.317 57.1243 247.637C56.7532 247.704 56.3801 247.737 56.009 247.737V247.736Z" fill="#371A45"/>
<path d="M64.3384 219.677C68.4417 223.9 72.9673 227.62 77.8697 230.888C84.3033 235.178 91.6764 237.85 99.3518 238.778C142.684 244.019 188.108 243.548 235.165 238.626C243.128 237.793 250.817 235.121 257.459 230.645C262.222 227.436 266.626 223.796 270.627 219.677" fill="#A652FF"/>
<path d="M64.3384 219.677C68.4417 223.9 72.9673 227.62 77.8697 230.888C84.3033 235.178 91.6764 237.85 99.3518 238.778C142.684 244.019 188.108 243.548 235.165 238.626C243.128 237.793 250.817 235.121 257.459 230.645C262.222 227.436 266.626 223.796 270.627 219.677" fill="url(#paint0_linear_12_6384)"/>
<path d="M284.032 241.421C284.032 242.726 283.447 244.011 282.364 244.869C280.294 246.505 277.258 245.959 275.887 243.704L270.253 234.426L264.664 225.219L271.95 219.276L275.517 225.469L283.441 239.228C283.84 239.919 284.031 240.672 284.031 241.421H284.032Z" fill="#FFCB4A"/>
<path d="M163.788 243.887C141.287 243.887 119.705 242.647 99.1843 240.165C91.2567 239.206 83.6194 236.4 77.0956 232.051C72.0444 228.682 67.4155 224.847 63.3373 220.65C62.8006 220.098 62.8126 219.214 63.3652 218.676C63.9178 218.139 64.8015 218.151 65.3383 218.704C69.2788 222.759 73.7551 226.469 78.6426 229.727C84.8045 233.836 92.0232 236.486 99.5182 237.392C140.759 242.379 186.347 242.328 235.018 237.237C242.886 236.414 250.375 233.734 256.678 229.487C261.426 226.287 265.783 222.659 269.626 218.704C270.163 218.151 271.047 218.138 271.599 218.676C272.152 219.214 272.164 220.098 271.627 220.65C267.651 224.745 263.145 228.497 258.237 231.804C251.556 236.306 243.628 239.145 235.309 240.015C210.63 242.596 186.731 243.887 163.787 243.887H163.788Z" fill="#371A45"/>
<path d="M166.36 228.76V248.952C166.36 250.176 165.861 251.284 165.06 252.09C164.259 252.891 163.148 253.39 161.925 253.39C159.476 253.39 157.491 251.399 157.491 248.952V228.102L166.36 228.76Z" fill="#FFCB4A"/>
<path d="M161.927 254.784C158.713 254.784 156.097 252.167 156.097 248.95V228.1C156.097 227.329 156.722 226.704 157.492 226.704C158.262 226.704 158.887 227.329 158.887 228.1V248.95C158.887 250.627 160.251 251.992 161.927 251.992C163.604 251.992 164.967 250.627 164.967 248.95V228.761C164.967 227.99 165.593 227.365 166.363 227.365C167.133 227.365 167.758 227.99 167.758 228.761V248.95C167.758 252.167 165.142 254.784 161.927 254.784Z" fill="#371A45"/>
<path d="M281.942 213.816C277.877 218.378 267.44 222.043 237.874 224.922C188.821 228.981 141.004 229.393 94.8513 224.922C65.3961 221.291 54.849 218.378 50.7838 213.816C48.5689 211.326 48.4582 207.565 50.4917 204.926C52.1745 202.738 54.0685 200.7 56.1253 198.804C74.3385 181.937 104.757 175.987 104.757 175.987C121.857 186.542 206.555 189.694 227.97 175.987C227.97 175.987 258.389 181.936 276.601 198.804C278.654 200.7 280.552 202.738 282.235 204.926C284.268 207.564 284.158 211.326 281.943 213.816H281.942Z" fill="url(#paint1_linear_12_6384)"/>
<g opacity="0.7">
<path d="M281.942 213.816C281.122 214.737 280.048 215.615 278.61 216.464C280.647 213.979 280.695 210.352 278.72 207.79C277.038 205.603 275.139 203.564 273.087 201.669C254.874 184.801 224.456 178.852 224.456 178.852C223.133 179.701 221.564 180.482 219.781 181.207L219.22 179.777C222.739 178.692 225.707 177.436 227.969 175.987C227.969 175.987 258.388 181.936 276.6 198.804C278.653 200.7 280.551 202.738 282.234 204.926C284.267 207.564 284.157 211.326 281.942 213.816Z" fill="#F8F8F8"/>
</g>
<g opacity="0.7">
<path d="M110.374 178.473C110.168 178.818 109.971 179.163 109.794 179.509C109.372 179.297 108.979 179.077 108.614 178.852C108.614 178.852 78.1953 184.801 59.9829 201.669C57.9262 203.564 56.0322 205.603 54.3494 207.79C52.3214 210.424 52.4266 214.171 54.6322 216.661C52.9298 215.778 51.6935 214.838 50.7828 213.816C48.5679 211.326 48.4572 207.565 50.4907 204.926C52.1735 202.738 54.0675 200.7 56.1243 198.804C74.3375 181.937 104.756 175.987 104.756 175.987C106.184 176.87 108.083 177.7 110.374 178.473Z" fill="#F8F8F8"/>
</g>
<path d="M281.942 213.816C277.877 218.378 267.439 222.043 237.874 224.922C188.821 228.981 141.004 229.393 94.8513 224.922C65.3961 221.291 54.849 218.378 50.7838 213.816C48.5689 211.326 48.4582 207.565 50.4917 204.926C52.1745 202.738 54.0685 200.7 56.1253 198.804C56.1253 198.804 51.3838 208.452 68.8008 211.009C86.2224 213.571 95.9695 213.571 95.9695 213.571C141.711 216.387 188.679 216.296 236.759 213.571C236.759 213.571 246.505 213.571 263.928 211.009C281.345 208.452 276.603 198.804 276.603 198.804C278.655 200.7 280.554 202.738 282.237 204.926C284.269 207.564 284.16 211.326 281.945 213.816H281.942Z" fill="#FFCB4A"/>
<g opacity="0.3">
<path d="M166.36 228.76V235.068C163.397 235.082 160.444 235.077 157.491 235.054V228.102L166.36 228.76Z" fill="#000070"/>
</g>
<g opacity="0.7">
<path d="M55.7354 203.304C53.8275 205.089 52.0684 207.008 50.4907 209.056C49.9679 209.733 49.5893 210.481 49.3493 211.268C48.6972 209.147 49.0711 206.763 50.4907 204.926C52.1735 202.738 54.0675 200.7 56.1242 198.804C56.1242 198.804 55.1224 200.848 55.7363 203.304H55.7354Z" fill="#F8F8F8"/>
</g>
<g opacity="0.7">
<path d="M276.88 203.698C277.574 206.025 278.366 213.019 263.926 215.14C246.504 217.701 236.757 217.701 236.757 217.701C188.677 220.426 141.709 220.517 95.9675 217.701C95.9675 217.701 86.2214 217.701 68.7988 215.14C54.3494 213.019 55.1503 206.015 55.8405 203.692C56.7271 206.484 59.8192 209.689 68.7988 211.008C86.2205 213.57 95.9675 213.57 95.9675 213.57C141.709 216.386 188.677 216.295 236.757 213.57C236.757 213.57 246.503 213.57 263.926 211.008C272.901 209.689 275.993 206.489 276.88 203.697V203.698Z" fill="#F8F8F8"/>
</g>
<g opacity="0.7">
<path d="M283.375 211.268C283.135 210.481 282.757 209.733 282.234 209.056C280.657 207.007 278.893 205.089 276.989 203.304C277.603 200.848 276.601 198.804 276.601 198.804C278.653 200.7 280.552 202.738 282.235 204.926C283.654 206.763 284.027 209.147 283.376 211.268H283.375Z" fill="#F8F8F8"/>
</g>
<g opacity="0.7">
<path d="M55.7354 203.304C55.8647 203.175 55.994 203.055 56.1233 202.935C56.1233 202.935 55.9847 203.213 55.8405 203.688C55.8023 203.558 55.7642 203.429 55.7354 203.304Z" fill="#F8F8F8"/>
</g>
<g opacity="0.7">
<path d="M276.989 203.304C276.96 203.434 276.922 203.563 276.878 203.698C276.74 203.219 276.6 202.936 276.6 202.936C276.73 203.056 276.859 203.176 276.988 203.305L276.989 203.304Z" fill="#F8F8F8"/>
</g>
<path d="M163.512 229.54C139.739 229.54 116.923 228.465 94.7144 226.314C65.5866 222.723 54.2478 219.804 49.7408 214.744C47.0775 211.754 46.9277 207.267 49.3845 204.075C66.1149 182.332 102.931 174.924 104.489 174.62C104.834 174.553 105.191 174.618 105.489 174.801C113.305 179.625 137.68 183.281 164.766 183.691C194.037 184.13 217.967 180.734 227.216 174.813C227.519 174.62 227.884 174.551 228.236 174.62C229.795 174.924 266.61 182.332 283.341 204.075C285.798 207.267 285.648 211.755 282.985 214.744C278.003 220.336 264.974 223.688 238.012 226.314C212.006 228.465 187.282 229.54 163.514 229.54H163.512ZM104.512 177.467C99.973 178.447 66.6415 186.224 51.5948 205.778C49.9557 207.907 50.0524 210.897 51.8236 212.885C55.7576 217.302 67.0619 220.089 95.0195 223.537C139.227 227.819 185.93 227.819 237.761 223.532C263.586 221.017 276.494 217.833 280.901 212.885C282.672 210.897 282.769 207.907 281.13 205.778C266.09 186.233 232.828 178.464 228.229 177.47C218.108 183.57 194.471 186.932 164.724 186.483C141.824 186.136 114.555 183.215 104.512 177.467Z" fill="#371A45"/>
<path d="M164.933 217.035C141.397 217.035 118.343 216.345 95.9237 214.966C95.1032 214.964 85.5078 214.877 68.5987 212.392C61.4972 211.35 56.9428 209.003 55.0599 205.419C53.1492 201.781 54.8023 198.331 54.8739 198.186C55.2144 197.494 56.0497 197.21 56.7418 197.549C57.4311 197.889 57.7167 198.721 57.3818 199.412C57.3251 199.532 56.2916 201.801 57.5493 204.154C58.9884 206.847 62.9493 208.74 69.0043 209.63C86.0975 212.14 95.8716 212.174 95.9684 212.174C95.9972 212.174 96.0251 212.174 96.0539 212.177C140.803 214.931 188.116 214.931 236.678 212.177C236.704 212.176 236.731 212.175 236.757 212.175C236.854 212.175 246.629 212.141 263.721 209.631C269.803 208.737 273.771 206.832 275.195 204.122C276.433 201.764 275.358 199.443 275.347 199.42C275.007 198.728 275.292 197.891 275.984 197.551C276.676 197.212 277.512 197.496 277.852 198.188C277.923 198.333 279.576 201.783 277.665 205.421C275.783 209.005 271.228 211.352 264.127 212.394C247.194 214.882 237.595 214.965 236.798 214.968C212.478 216.347 188.465 217.037 164.933 217.037V217.035Z" fill="#371A45"/>
<path d="M161.809 229.517C161.039 229.517 160.414 228.893 160.414 228.121V215.649C160.414 214.877 161.039 214.252 161.809 214.252C162.579 214.252 163.205 214.877 163.205 215.649V228.121C163.205 228.893 162.579 229.517 161.809 229.517Z" fill="#371A45"/>
<path d="M200.001 227.76C199.855 227.76 199.707 227.736 199.56 227.687C198.829 227.443 198.434 226.653 198.678 225.921C200.567 220.246 198.733 215.724 198.714 215.68C198.417 214.967 198.753 214.15 199.465 213.854C200.176 213.557 200.993 213.893 201.29 214.605C201.383 214.829 203.542 220.148 201.326 226.804C201.132 227.389 200.587 227.759 200.002 227.759L200.001 227.76Z" fill="#371A45"/>
<path d="M234.19 226.618C233.889 226.618 233.588 226.521 233.333 226.322C232.725 225.848 232.617 224.971 233.09 224.363C236.005 220.622 232.973 214.398 232.941 214.336C232.599 213.646 232.879 212.808 233.568 212.464C234.257 212.12 235.094 212.399 235.438 213.088C235.597 213.406 239.293 220.945 235.291 226.08C235.016 226.433 234.604 226.618 234.19 226.618V226.618Z" fill="#371A45"/>
<path d="M266.467 222.149C266.238 222.149 266.006 222.092 265.791 221.973C265.117 221.599 264.874 220.749 265.249 220.074C267.099 216.738 264.66 211.305 264.636 211.251C264.317 210.55 264.624 209.722 265.324 209.401C266.024 209.08 266.851 209.386 267.172 210.086C267.298 210.359 270.228 216.852 267.69 221.43C267.435 221.889 266.958 222.148 266.468 222.148L266.467 222.149Z" fill="#371A45"/>
<path d="M127.916 227.76C127.332 227.76 126.787 227.39 126.592 226.805C124.375 220.149 126.535 214.829 126.628 214.606C126.925 213.894 127.742 213.556 128.453 213.855C129.163 214.151 129.5 214.966 129.206 215.678C129.175 215.755 127.374 220.318 129.24 225.923C129.484 226.655 129.089 227.445 128.358 227.689C128.212 227.738 128.063 227.762 127.917 227.762L127.916 227.76Z" fill="#371A45"/>
<path d="M94.506 226.144C94.0911 226.144 93.6799 225.959 93.4046 225.606C89.4027 220.47 93.0976 212.932 93.2576 212.613C93.6027 211.923 94.4399 211.643 95.1302 211.989C95.8185 212.335 96.0976 213.172 95.7544 213.861C95.7237 213.923 92.6911 220.147 95.6055 223.888C96.0799 224.496 95.9711 225.374 95.3637 225.848C95.1088 226.046 94.8064 226.143 94.5069 226.143L94.506 226.144Z" fill="#371A45"/>
<path d="M61.4508 221.174C60.861 221.174 60.2889 220.862 59.9819 220.309C57.3744 215.608 60.3605 208.989 60.4889 208.71C60.8759 207.867 61.8731 207.498 62.714 207.886C63.555 208.273 63.9243 209.268 63.5382 210.111C62.8638 211.592 61.4378 216.017 62.915 218.68C63.3643 219.491 63.0722 220.513 62.262 220.963C62.0043 221.107 61.7252 221.175 61.4489 221.175L61.4508 221.174Z" fill="#371A45"/>
<path d="M111.32 196.843C111.926 193.52 110.201 190.421 107.466 189.921C104.731 189.422 102.023 191.712 101.417 195.035C100.811 198.358 102.537 201.457 105.271 201.957C108.006 202.456 110.714 200.167 111.32 196.843Z" fill="#FFCB4A"/>
<path d="M249.677 182.687C252.436 178.612 260.489 178.069 259.916 187.376L249.677 182.687Z" fill="#FFCB4A"/>
<path d="M106.037 203.423C105.699 203.423 105.359 203.393 105.021 203.33C101.533 202.694 99.3006 198.859 100.044 194.784C100.395 192.859 101.353 191.151 102.743 189.977C104.21 188.737 105.976 188.229 107.717 188.547C109.457 188.864 110.931 189.964 111.865 191.642C112.751 193.232 113.045 195.168 112.693 197.092C112.343 199.017 111.385 200.725 109.995 201.899C108.813 202.898 107.437 203.422 106.037 203.422V203.423ZM106.714 191.249C105.967 191.249 105.211 191.546 104.543 192.111C103.648 192.868 103.024 193.995 102.79 195.286C102.323 197.846 103.549 200.223 105.523 200.583C106.43 200.75 107.377 200.458 108.196 199.767C109.091 199.01 109.715 197.883 109.949 196.592C110.184 195.302 109.999 194.028 109.428 193.002C108.907 192.066 108.121 191.46 107.217 191.295C107.05 191.264 106.883 191.249 106.715 191.249H106.714Z" fill="#371A45"/>
<path d="M258.61 188.821C253.972 188.821 250.565 186.998 248.471 183.388C248.202 182.924 248.221 182.347 248.522 181.904C250.391 179.144 254.023 177.821 256.97 178.825C258.405 179.314 261.697 181.135 261.308 187.461C261.265 188.159 260.715 188.717 260.018 188.768C259.537 188.804 259.068 188.821 258.61 188.821ZM251.401 182.785C252.988 184.977 255.295 186.026 258.542 186.031C258.454 183.591 257.596 181.99 256.07 181.468C254.582 180.961 252.648 181.544 251.401 182.785Z" fill="#371A45"/>
<path d="M227.968 177.385C227.198 177.385 226.573 176.761 226.573 175.989V121.377C226.573 85.9894 195.403 69.8719 166.444 69.8719C137.484 69.8719 106.315 85.9894 106.315 121.377V175.989C106.315 176.761 105.69 177.385 104.919 177.385C104.149 177.385 103.524 176.761 103.524 175.989V121.377C103.524 104.583 110.362 90.4791 123.299 80.5911C134.699 71.878 150.022 67.0792 166.444 67.0792C182.865 67.0792 198.188 71.878 209.588 80.5911C222.525 90.4791 229.364 104.582 229.364 121.377V175.989C229.364 176.761 228.738 177.385 227.968 177.385Z" fill="#371A45"/>
<g opacity="0.6">
<path d="M159.881 82.0349C140.804 93.9559 128.453 111.788 119.739 132.819C119.263 133.969 117.548 133.655 117.52 132.409C116.926 105.883 124.652 84.5511 159.111 79.9125C160.339 79.7468 160.931 81.3787 159.881 82.0349Z" fill="#F8F8F8"/>
</g>
<g opacity="0.6">
<path d="M201.238 94.1411C202.377 90.2992 199.751 86.1305 195.373 84.8301C190.994 83.5297 186.521 85.59 185.381 89.432C184.242 93.2739 186.868 97.4425 191.246 98.7429C195.625 100.043 200.098 97.983 201.238 94.1411Z" fill="#F8F8F8"/>
</g>
<g opacity="0.6">
<path d="M217.773 117.026C219.882 124.964 217.546 132.475 212.556 133.803C207.566 135.13 204.708 129.001 202.599 121.063C200.49 113.125 199.93 106.384 204.92 105.057C209.909 103.729 215.664 109.089 217.773 117.026Z" fill="#F8F8F8"/>
</g>
<path d="M279.639 247.214C279.298 247.214 278.956 247.184 278.615 247.122C276.985 246.829 275.556 245.848 274.695 244.43L263.471 225.946C263.071 225.287 263.28 224.429 263.939 224.028C264.598 223.628 265.456 223.837 265.856 224.496L277.081 242.98C277.533 243.724 278.253 244.219 279.109 244.373C279.966 244.527 280.814 244.316 281.497 243.775C282.655 242.86 282.972 241.205 282.235 239.926L270.741 219.974C270.356 219.305 270.586 218.452 271.253 218.067C271.92 217.681 272.774 217.911 273.159 218.579L284.653 238.531C286.076 241.001 285.463 244.197 283.228 245.965C282.199 246.779 280.931 247.213 279.639 247.213V247.214Z" fill="#371A45"/>
<g opacity="0.25">
<path d="M227.969 121.378V175.988C199.885 185.156 170.3 187.243 139.393 183.065C212.513 178.785 224.551 123.226 226.459 108.45C227.443 112.46 227.969 116.768 227.969 121.379V121.378Z" fill="#371A45"/>
</g>
<path d="M163.595 204.918C166.607 204.918 169.048 202.18 169.048 198.801C169.048 195.423 166.607 192.685 163.595 192.685C160.584 192.685 158.142 195.423 158.142 198.801C158.142 202.18 160.584 204.918 163.595 204.918Z" fill="#FFCB4A"/>
<path d="M224.591 201.956C227.326 201.457 229.052 198.358 228.446 195.034C227.84 191.711 225.132 189.422 222.397 189.921C219.662 190.42 217.937 193.519 218.542 196.843C219.148 200.166 221.857 202.455 224.591 201.956Z" fill="#FFCB4A"/>
<path d="M163.595 206.315C159.818 206.315 156.747 202.944 156.747 198.802C156.747 194.659 159.818 191.288 163.595 191.288C167.372 191.288 170.444 194.659 170.444 198.802C170.444 202.944 167.371 206.315 163.595 206.315ZM163.595 194.082C161.358 194.082 159.538 196.2 159.538 198.802C159.538 201.405 161.358 203.523 163.595 203.523C165.833 203.523 167.653 201.405 167.653 198.802C167.653 196.2 165.833 194.082 163.595 194.082Z" fill="#371A45"/>
<path d="M223.824 203.423C222.424 203.423 221.048 202.899 219.867 201.9C218.478 200.726 217.52 199.019 217.168 197.094C216.817 195.168 217.111 193.233 217.997 191.643C218.932 189.965 220.405 188.865 222.146 188.548C223.886 188.229 225.653 188.738 227.12 189.978C228.509 191.152 229.468 192.859 229.818 194.785C230.562 198.86 228.329 202.695 224.842 203.331C224.503 203.393 224.163 203.424 223.825 203.424L223.824 203.423ZM223.149 191.249C222.98 191.249 222.813 191.264 222.647 191.295C221.742 191.46 220.957 192.067 220.435 193.002C219.864 194.028 219.68 195.302 219.914 196.593C220.15 197.882 220.773 199.009 221.669 199.767C222.486 200.458 223.435 200.749 224.34 200.583C226.314 200.223 227.539 197.846 227.073 195.286C226.838 193.996 226.216 192.869 225.32 192.111C224.652 191.546 223.897 191.249 223.15 191.249H223.149Z" fill="#371A45"/>
<g opacity="0.3">
<path d="M275.518 225.469C273.456 227.699 271.27 230.755 270.253 234.426L264.664 225.219L271.95 219.276L275.517 225.469H275.518Z" fill="#000070"/>
</g>
<path d="M97.3202 148.426C97.3155 148.436 97.3109 148.44 97.3062 148.45C96.4141 149.981 95.3983 151.549 94.2522 153.162C94.2522 153.162 94.2141 154.26 94.0848 156.194C93.9267 158.617 93.6346 162.353 93.1015 166.868V166.882C92.0997 175.417 90.2634 186.724 86.9415 197.178C80.4697 217.567 81.5479 234.718 81.5479 234.718C81.5479 234.718 83.187 244.275 78.4697 246.832L56.2918 246.534L54.4992 246.51C50.1652 248.472 46.8861 248.328 45.2321 244.912C41.7567 246.055 37.365 243.54 41.9335 239.036C41.9335 239.036 47.5093 234.358 53.9187 232.199C53.9187 232.199 54.8201 221.165 54.0192 213.249C53.7652 213.24 53.5113 213.225 53.2573 213.211C27.4123 211.858 12.8187 203.793 19.3583 183.111C20.7202 178.798 23.0021 173.938 26.2951 168.474L26.3668 160.961L26.4151 156.278C26.4151 156.278 11.6735 146.323 20.4225 123.655C20.9639 122.245 21.5202 120.926 22.0904 119.678C22.0951 119.664 22.0951 119.659 22.0951 119.659C30.6524 100.896 41.6265 100.229 48.7075 99.6679L80.7897 102.426C80.7897 102.426 115.835 116.612 97.3202 148.424V148.426Z" fill="#5CC367"/>
<path d="M48.46 103.068C58.3447 128.002 70.2491 128.838 84.0344 107.224C70.1746 115.74 58.1047 115.399 48.46 103.068Z" fill="#289853"/>
<path d="M40.2849 121.938V116.181C40.2849 116.181 32.5341 126.336 34.2122 134.292L39.9649 131.213L40.496 127.934" fill="#289853"/>
<path d="M97.5665 148.426C97.5618 148.436 97.5572 148.44 97.5525 148.45C96.0279 151.324 95.0065 153.919 94.3311 156.194C92.3125 162.953 93.3478 166.868 93.3478 166.868C93.3478 166.868 93.3432 166.873 93.3385 166.882H93.3478C92.346 175.417 90.5097 186.724 87.1878 197.178C80.716 217.567 81.7942 234.718 81.7942 234.718C81.7942 234.718 83.4333 244.275 78.716 246.832L56.5381 246.534C56.2553 246.213 56.1064 246.03 56.1064 246.03C56.1064 246.03 75.2834 241.074 73.3653 232.76C71.448 224.442 71.2843 212.289 76.5578 195.796C78.5904 189.444 79.2239 184.215 79.2342 180.187C79.2435 176.566 77.5327 173.127 74.6229 170.973C74.0676 170.562 73.5011 170.103 72.9234 169.592C60.219 158.318 57.553 153.401 57.553 153.401C57.553 153.401 44.8775 169.233 27.7386 161.316L26.6121 160.962L26.6605 156.279C26.6605 156.279 11.9189 146.324 20.6679 123.656C21.2093 122.246 21.7655 120.927 22.3358 119.679C22.1776 120.404 17.1199 143.969 35.5099 143.907C54.1873 143.844 47.9649 134.292 47.9649 134.292C47.9649 134.292 60.8181 141.407 63.9344 145.125C67.0508 148.843 78.3169 161.077 86.5868 151.362C94.8567 141.647 100.969 122.577 100.969 122.577C100.969 122.577 103.601 136.999 97.5656 148.426H97.5665Z" fill="#289853"/>
<path d="M34.5173 179.728C34.5173 179.728 36.2401 195.272 47.8505 199.663L52.1101 193.659L50.672 189.022C44.2254 187.51 38.4132 185.05 34.5173 179.727V179.728Z" fill="#289853"/>
<path d="M53.5036 213.211C27.6586 211.858 13.065 203.793 19.6046 183.111C19.4223 188.954 21.4455 203.678 46.0775 205.213C46.0775 205.213 50.3538 205.813 51.351 200.137C51.351 200.137 54.3566 207.473 53.5036 213.211Z" fill="#289853"/>
<path d="M61.7783 187.823C57.1355 190.684 54.7122 196.632 53.1485 203.774L52.1094 188.97L58.5439 188.422" fill="#289853"/>
<g opacity="0.7">
<path d="M102.603 133.232C100.92 115.438 80.7897 107.287 80.7897 107.287L48.7075 104.529C41.1567 105.129 29.1714 105.848 20.4225 128.516C18.8262 132.647 18.0113 136.355 17.7517 139.656C17.3731 135.266 17.9917 129.951 20.4225 123.657C29.1714 100.989 41.1567 100.269 48.7075 99.6698L80.7897 102.428C80.7897 102.428 104.569 112.056 102.603 133.232Z" fill="#F8F8F8"/>
</g>
<g opacity="0.7">
<path d="M33.7816 134.75L26.415 137.33L48.2144 135.371L47.2302 133.213L42.9957 132.813C42.9957 132.813 48.7483 123.058 55.9401 128.815L63.1308 134.572C63.1308 134.572 67.1262 141.048 72.9589 141.368L64.6592 131.357C64.6592 131.357 74.3477 129.781 78.1673 136.494C78.1673 136.494 74.5961 129.078 67.1458 127.586C59.6945 126.096 58.7764 125.461 58.7764 125.461C58.7764 125.461 49.4618 119.868 44.6711 125.461C39.8794 131.054 38.8412 133.293 38.8412 133.293L33.7826 134.751L33.7816 134.75Z" fill="#F8F8F8"/>
</g>
<path d="M49.647 249.17C47.1027 249.17 45.5213 247.964 44.5408 246.508C42.2906 246.85 40.0775 246.057 39.1008 244.453C38.5761 243.592 37.7073 241.243 40.9566 238.04C40.9827 238.014 41.0106 237.989 41.0394 237.965C41.2645 237.776 46.3967 233.503 52.5958 231.188C52.7735 228.584 53.221 220.822 52.7391 214.581C34.0598 213.543 22.841 209.041 18.4587 200.834C14.2893 193.026 16.3982 182.308 24.9043 168.078L25.0132 156.966C23.7834 155.976 20.9917 153.408 18.8838 149.078C16.3972 143.973 14.4205 135.329 19.121 123.151C28.0969 99.896 40.7836 98.8925 48.3642 98.293L48.5976 98.2744C49.3642 98.2045 50.0377 98.7873 50.0991 99.5553C50.1595 100.324 49.5865 100.996 48.8181 101.058L48.5837 101.076C41.2096 101.659 30.0672 102.541 21.7238 124.156C13.507 145.445 26.6364 154.736 27.1992 155.121C27.5834 155.384 27.8151 155.824 27.8104 156.289L27.6904 168.483C27.6876 168.733 27.6188 168.977 27.4904 169.191C19.4829 182.483 17.2726 192.686 20.9201 199.515C24.8941 206.958 35.7435 210.993 54.087 211.851C54.7773 211.883 55.341 212.417 55.4098 213.106C56.2126 221.057 55.3494 231.854 55.3121 232.31C55.2666 232.866 54.8954 233.341 54.3661 233.52C48.5539 235.477 43.3827 239.65 42.8739 240.069C41.6543 241.284 41.1222 242.403 41.485 242.997C41.885 243.656 43.3864 244.046 44.7985 243.583C45.4627 243.366 46.1846 243.672 46.4888 244.301C47.0004 245.357 48.1976 247.831 53.9261 245.236C54.1121 245.153 54.3075 245.109 54.5196 245.112L78.091 245.427C80.9292 243.488 80.5683 237.26 80.1729 234.951C80.1645 234.901 80.159 234.852 80.1552 234.803C80.1106 234.092 79.1348 217.156 85.6111 196.753C91.9479 176.789 92.8493 153.343 92.8577 153.109C92.867 152.835 92.9573 152.57 93.1163 152.347C100.401 142.128 102.852 132.668 100.403 124.229C96.3945 110.417 80.425 103.784 80.265 103.718C79.5515 103.428 79.2073 102.614 79.4966 101.899C79.7869 101.185 80.5999 100.842 81.3125 101.129C82.0195 101.416 98.6783 108.313 103.078 123.432C105.758 132.642 103.252 142.799 95.6289 153.629C95.4754 156.918 94.2531 178.751 88.2716 197.597C82.1599 216.852 82.8762 233.388 82.9376 234.562C83.1088 235.63 84.4688 245.162 79.1376 248.055C78.9273 248.17 78.6808 248.218 78.4538 248.224L54.7893 247.909C52.7428 248.801 51.0498 249.167 49.6488 249.167L49.647 249.17Z" fill="#371A45"/>
<path d="M79.9989 166.172C79.0678 166.172 78.104 166.051 77.1105 165.784C67.3002 163.149 58.7252 149.629 57.6749 147.921C56.5884 146.854 49.5409 139.816 46.9464 134.208H40.0384C39.5929 134.208 39.1752 133.995 38.9119 133.635C38.6487 133.276 38.5733 132.812 38.7091 132.388C38.8003 132.1 41.0106 125.314 46.2543 122.679C48.7083 121.445 51.393 121.317 54.2358 122.295C57.0963 123.281 59.7215 124.961 62.0341 126.897C68.3867 124.942 73.6863 126.477 77.7943 131.469C78.7254 132.6 79.3031 133.954 79.4668 135.383C79.8482 138.722 79.3924 140.799 78.0343 141.921C76.9915 142.782 75.5617 142.936 73.7831 142.375C71.5979 141.688 69.6407 140.192 68.2704 138.165C66.129 134.998 60.3857 127.368 53.327 124.936C51.1921 124.201 49.2879 124.279 47.5064 125.173C44.7864 126.541 43.0245 129.487 42.1138 131.414H47.8683C48.446 131.414 48.9641 131.771 49.1707 132.311C51.273 137.795 59.6601 145.958 59.7447 146.039C59.8312 146.124 59.9075 146.219 59.9699 146.323C60.0554 146.466 68.6686 160.626 77.8333 163.086C86.44 165.395 92.9396 152.664 93.0038 152.535C93.3489 151.846 94.187 151.567 94.8763 151.912C95.5647 152.258 95.8438 153.096 95.4996 153.785C95.2233 154.339 89.1944 166.172 79.9989 166.172ZM64.4871 129.15C67.1234 131.784 69.2072 134.569 70.5812 136.601C71.5998 138.108 73.0342 139.213 74.6203 139.712C75.4045 139.959 76.0017 139.978 76.2575 139.768C76.451 139.609 77.0519 138.845 76.6938 135.701C76.5915 134.809 76.2277 133.959 75.6398 133.245C72.637 129.597 68.9728 128.244 64.4871 129.15Z" fill="#371A45"/>
<path d="M75.0146 132.238C75.356 131.336 75.7095 130.519 76.0844 129.678C76.4584 128.845 76.8519 128.024 77.2621 127.214C78.0882 125.598 78.9952 124.018 80.0491 122.578C79.5719 124.297 79.2938 126.032 79.0975 127.771C79.0026 128.641 78.9282 129.51 78.8742 130.38C78.8231 131.241 78.7812 132.134 78.7831 132.953L75.0146 132.239V132.238Z" fill="#371A45"/>
<path d="M40.4506 134.145L30.4895 135.77L39.6254 131.477C40.3296 131.147 41.1687 131.45 41.4999 132.154C41.831 132.859 41.5278 133.699 40.8236 134.03C40.7045 134.086 40.5752 134.124 40.4515 134.145H40.4506Z" fill="#371A45"/>
<path d="M33.1584 158.424C28.9937 158.424 26.3071 157.701 26.0364 157.624C25.295 157.415 24.8625 156.644 25.0718 155.902C25.2801 155.16 26.0485 154.728 26.7899 154.935C26.9453 154.979 42.4925 159.091 57.8703 145.982C58.4564 145.482 59.3373 145.553 59.8378 146.139C60.3373 146.725 60.2666 147.607 59.6806 148.108C49.6181 156.686 39.6133 158.424 33.1593 158.424H33.1584Z" fill="#371A45"/>
<path d="M40.0385 119.219C40.7361 123.355 41.392 127.487 41.8562 131.708L39.0654 131.696C39.5324 127.589 39.8078 123.397 40.0385 119.219Z" fill="#371A45"/>
<path d="M52.6468 213.491C52.2989 211.462 51.9836 209.451 51.6831 207.426C51.3845 205.404 51.1064 203.379 50.8477 201.349C50.3417 197.288 49.9156 193.212 49.7101 189.088L50.8747 190.4C50.3752 190.279 49.9557 190.154 49.5101 190.016C49.0719 189.88 48.6403 189.733 48.2124 189.578C47.3556 189.273 46.5175 188.928 45.6905 188.565C44.0402 187.829 42.4523 186.967 40.9444 185.992C39.4271 185.034 38.029 183.895 36.7397 182.67L35.7983 181.725C35.5006 181.395 35.2206 181.049 34.9331 180.713L34.5062 180.208L34.1229 179.666L33.3647 178.587L34.2568 179.554L34.7015 180.034L35.1871 180.474C35.5127 180.765 35.8271 181.063 36.1573 181.344L37.1899 182.137C38.5918 183.152 40.0634 184.056 41.6262 184.774C43.1779 185.506 44.7807 186.117 46.4161 186.6C47.2356 186.837 48.058 187.054 48.8868 187.23C49.7017 187.41 50.5724 187.56 51.3315 187.645L51.351 187.648C52.0022 187.769 52.4645 188.322 52.4961 188.957C52.6952 192.962 53.1138 196.986 53.6143 201C53.8692 203.007 54.1445 205.013 54.4413 207.017C54.738 209.017 55.0534 211.027 55.3929 213.008L55.3948 213.017C55.525 213.777 55.0152 214.499 54.2562 214.629C53.4971 214.76 52.7752 214.25 52.645 213.49L52.6468 213.491Z" fill="#371A45"/>
<path d="M51.0163 187.629C53.0805 187.724 55.1698 187.785 57.2508 187.823C59.3345 187.859 61.4201 187.865 63.5095 187.823C61.4806 188.326 59.435 188.784 57.3819 189.212C55.3261 189.641 53.2749 190.043 51.193 190.416C50.4293 190.553 49.7 190.044 49.5632 189.28C49.4265 188.516 49.9353 187.786 50.6981 187.649C50.8005 187.631 50.9028 187.624 51.0023 187.628H51.0153L51.0163 187.629Z" fill="#371A45"/>
<path d="M52.6944 195.441C52.0525 196.221 51.4135 196.91 50.739 197.605C50.0702 198.295 49.3678 198.954 48.6385 199.58C47.9129 200.206 47.1436 200.793 46.3232 201.296C45.5064 201.792 44.6283 202.238 43.6934 202.376C44.5603 202.012 45.2543 201.394 45.8897 200.75C46.5232 200.098 47.0887 199.384 47.6106 198.637C48.1334 197.892 48.6237 197.124 49.0767 196.335C49.5269 195.553 49.9706 194.731 50.3353 193.951L52.6944 195.443V195.441Z" fill="#371A45"/>
<path d="M43.3455 244.57C43.3892 244.396 43.4152 244.354 43.4496 244.258C43.4822 244.17 43.5148 244.109 43.5483 244.035C43.6134 243.886 43.6841 243.763 43.7538 243.631C43.898 243.378 44.0431 243.135 44.2069 242.915C44.5204 242.46 44.8748 242.064 45.2404 241.692C45.9762 240.955 46.7957 240.369 47.6376 239.885C48.4776 239.395 49.3641 239.047 50.2404 238.75C50.6804 238.606 51.1316 238.5 51.5688 238.378L52.9037 238.117L51.7586 238.819C51.3967 239.083 51.0302 239.325 50.6888 239.598C50.0116 240.151 49.3734 240.727 48.8479 241.373C48.3204 242.014 47.8748 242.691 47.565 243.388C47.4134 243.738 47.2804 244.086 47.2032 244.429C47.1548 244.599 47.1325 244.768 47.1102 244.925C47.1036 245.003 47.0906 245.085 47.0943 245.149C47.0953 245.18 47.0906 245.222 47.0962 245.244C47.1036 245.256 47.0981 245.32 47.1213 245.255C46.9316 246.298 45.9334 246.989 44.8915 246.799C43.8497 246.609 43.1585 245.611 43.3483 244.568L43.3455 244.57Z" fill="#371A45"/>
<path d="M103.375 105.49C94.8798 109.373 85.4369 111.673 76.5708 112.355L62.1511 113.366C42.4159 112.731 30.9293 104.013 25.0176 92.2906C18.1542 78.6697 18.8175 60.9967 22.8241 47.2474C31.853 16.2683 62.4311 -4.87325 93.384 4.16479C124.342 13.201 138.763 47.4783 129.731 78.4528C126.138 90.789 115.768 99.8261 103.374 105.49H103.375Z" fill="#5CC367"/>
<path d="M103.375 105.49C94.8798 109.373 85.4369 111.673 76.5708 112.355L62.1511 113.366C42.4159 112.731 30.9293 104.013 25.0176 92.2905C29.0976 96.6192 37.1368 103.243 50.1946 106.435C65.0599 110.065 86.9058 109.863 103.376 105.49H103.375Z" fill="#289853"/>
<g opacity="0.7">
<path d="M132.143 54.1789C130.164 31.3934 116.311 10.857 93.384 4.1648C65.3307 -4.02706 37.5843 12.5726 25.9106 38.8173C38.6848 15.4091 64.7083 1.30789 91.0017 8.98404C93.9933 9.85814 96.8315 10.9678 99.5078 12.2896C97.0399 11.7311 95.0994 11.9806 94.265 13.174C92.5924 15.5654 96.0008 20.8408 101.879 24.9582C107.761 29.0746 113.881 30.4737 115.552 28.0841C116.15 27.2277 116.098 26.0017 115.515 24.5933C127.908 38.7102 132.801 59.2476 128.448 78.9872C128.854 77.9232 129.227 76.8294 129.553 75.7095C131.627 68.5919 132.461 61.3002 132.143 54.1798V54.1789Z" fill="white"/>
</g>
<path d="M76.5161 111.658C79.9412 110.456 83.4064 110.231 86.8241 109.426C100.222 106.372 113.725 100.296 122.445 89.3797C126.849 83.9786 129.008 77.2622 130.107 70.4751C134.377 46.647 123.723 19.5487 101.31 8.73919C66.8695 -8.16769 29.6876 17.619 22.8819 53.0916C18.6372 72.7074 22.2726 97.8573 42.1333 107.379C45.5855 109.087 49.3269 110.274 53.1381 110.993C56.1493 111.553 59.1791 111.817 62.1438 112.668C62.5382 112.76 62.7792 113.165 62.6722 113.557C62.6024 113.815 62.3987 114.002 62.1578 114.064C59.3866 114.759 56.701 114.405 53.9753 113.996C45.8208 112.729 37.8105 109.452 31.7183 103.749C17.9712 90.8598 16.374 69.9612 20.0019 52.4874C27.2643 15.3122 66.4881 -11.5012 102.546 6.23508C129.693 19.423 139.938 54.0523 130.2 81.549C126.265 91.988 117.497 99.828 107.848 104.953C101.442 108.384 94.5089 110.725 87.4167 112.209C85.6446 112.574 83.8632 112.893 82.0696 113.13C80.2724 113.332 78.4491 113.375 76.6231 113.05C76.2314 112.981 75.97 112.606 76.0398 112.214C76.0872 111.947 76.2761 111.741 76.5161 111.659V111.658Z" fill="#371A45"/>
<path d="M25.5024 39.2269C21.6 42.2951 16.9237 51.8274 20.0651 64.0538C23.2066 76.2801 33.9611 80.3286 38.3575 76.5519C41.7333 73.6522 45.7743 64.4978 42.6329 52.2715C39.4914 40.0451 29.4987 36.0842 25.5024 39.2269Z" fill="#371A45"/>
<g opacity="0.6">
<path d="M40.869 54.824C42.4225 60.8683 42.2198 66.1623 41.2095 70.3206C42.5435 67.674 43.5863 64.0445 43.7388 59.6916C43.6486 57.3811 43.3072 54.8975 42.6328 52.2715C39.4913 40.0451 29.4987 36.0842 25.5023 39.2269C24.4019 40.0917 23.2409 41.4712 22.2102 43.279C22.7209 42.6768 23.2372 42.1722 23.7395 41.7766C27.7359 38.6348 37.7276 42.5967 40.869 54.824Z" fill="white"/>
</g>
<g opacity="0.35">
<path d="M38.3574 76.5538C33.9601 80.3286 23.2055 76.2782 20.065 64.0556C17.7664 55.1135 19.6511 47.6123 22.3553 43.0295C21.6651 46.809 21.6762 51.254 22.9293 56.1272C26.0688 68.3536 36.8225 72.4039 41.2216 68.6254C41.9183 68.0268 42.6449 67.1583 43.3304 66.0515C42.4328 71.1974 40.2848 74.8977 38.3574 76.5538Z" fill="#111A28"/>
</g>
<path d="M93.1143 63.9514C95.1069 69.0499 93.5487 79.6621 82.0397 86.8551C70.5308 94.0481 56.6106 89.6096 54.5808 83.6193C53.0226 79.0197 54.9873 69.1448 66.4963 61.9518C78.0053 54.7588 91.0734 58.7291 93.1134 63.9514H93.1143Z" fill="#371A45"/>
<g opacity="0.6">
<path d="M93.8194 67.3454C93.7376 66.0589 93.4892 64.9083 93.1152 63.9514C91.0752 58.73 78.0071 54.7588 66.4982 61.9518C60.2041 65.8858 56.7687 70.6203 55.1985 74.8577C57.1139 71.4962 60.2525 68.0222 65.0619 65.0172C76.5718 57.8233 89.6389 61.7963 91.6799 67.0168C92.3552 68.7464 92.6231 71.1109 92.2315 73.7583C93.2157 71.5149 93.7041 69.3226 93.8194 67.3454Z" fill="white"/>
</g>
<g opacity="0.35">
<path d="M82.0379 86.856C70.5317 94.0481 56.6115 89.6105 54.5799 83.6212C53.6915 80.9942 53.952 76.646 56.4822 72.0586C56.4497 73.3907 56.619 74.571 56.9408 75.5215C58.9706 81.5146 72.8917 85.9512 84.3979 78.7601C88.9868 75.8901 91.9943 72.4812 93.8269 69.0918C93.5487 74.5133 90.452 81.5983 82.037 86.857L82.0379 86.856Z" fill="#111A28"/>
</g>
<path d="M34.2997 78.8503C33.2569 78.8503 32.1481 78.6735 31.0085 78.3141C26.6745 76.9495 21.2875 72.5473 19.1647 64.2856C15.8539 51.402 20.9433 41.6286 24.9285 38.4943C26.6652 37.1286 29.2541 36.8847 32.0337 37.8268C36.19 39.2353 41.3938 43.7082 43.5343 52.0388C46.7994 64.7464 42.4636 74.2508 38.964 77.2576C37.7389 78.3104 36.1202 78.8494 34.3007 78.8494L34.2997 78.8503ZM28.8308 39.1301C27.735 39.1301 26.7759 39.4093 26.0773 39.9586C22.1935 43.0128 18.04 52.4353 20.9656 63.822C22.8987 71.3455 27.709 75.3232 31.5667 76.538C34.0309 77.3134 36.3435 77.0556 37.7519 75.8454C40.9119 73.1309 44.7873 64.3936 41.7324 52.5033C39.777 44.8932 35.1314 40.8438 31.4364 39.5909C30.5267 39.2818 29.642 39.1301 28.8318 39.1301H28.8308Z" fill="#371A45"/>
<path d="M69.0786 91.4891C66.1056 91.4891 63.3893 90.9734 61.1967 90.1905C57.3138 88.8034 54.5808 86.5172 53.7008 83.919C52.0719 79.1119 53.9724 68.6831 66.0051 61.1634C72.4991 57.1047 80.3541 56.0006 87.0184 58.2087C90.5608 59.3826 93.0985 61.3523 93.9822 63.6125C96.0315 68.8572 94.7357 80.0195 82.5337 87.6454C78.0527 90.4455 73.3075 91.4891 69.0796 91.4891H69.0786ZM79.9346 58.9888C75.9569 58.9888 71.3791 59.9979 66.9902 62.7412C55.8673 69.6922 54.0161 79.0523 55.4627 83.3196C56.1492 85.3461 58.5269 87.2591 61.8218 88.4367C66.7223 90.1858 74.4778 90.4828 81.5467 86.0657C92.7943 79.0356 94.0799 68.9782 92.2482 64.2902C91.5775 62.5727 89.4035 60.9604 86.4323 59.9755C84.6202 59.3751 82.3923 58.9888 79.9346 58.9888Z" fill="#371A45"/>
<path d="M44.2103 82.7066C44.6956 82.6126 44.952 81.8281 44.783 80.9544C44.6141 80.0807 44.0838 79.4485 43.5986 79.5425C43.1133 79.6364 42.8569 80.4209 43.0258 81.2946C43.1948 82.1684 43.7251 82.8005 44.2103 82.7066Z" fill="#371A45"/>
<path d="M46.1556 81.4298C45.484 82.0135 45.2021 82.7889 45.5258 83.1622C45.8496 83.5355 46.657 83.3651 47.3286 82.7824C48.0003 82.1987 48.2821 81.4233 47.9584 81.05C47.6347 80.6767 46.8272 80.8471 46.1556 81.4298Z" fill="#371A45"/>
<path d="M73.407 42.3872L79.7122 48.4809C81.2108 45.9479 82.6397 43.9334 83.9885 42.3612C89.4081 36.0404 93.6221 36.7721 96.4584 39.1328C100.325 42.3519 99.0612 50.0867 99.0612 50.0867C94.3747 53.2396 98.0901 58.312 101.967 58.4414C105.326 58.555 108.054 53.8996 104.598 50.2747C104.926 48.7387 107.176 35.2575 98.6324 31.3748C90.2072 27.5525 82.7643 32.2638 78.1847 36.6595C75.2451 39.4828 73.4898 42.1741 73.407 42.3882V42.3872Z" fill="#5CC367"/>
<g opacity="0.5">
<path d="M75.0286 40.1149C75.2044 39.9409 75.3867 39.7649 75.5681 39.589C80.4063 34.9448 88.1952 30.1441 97.174 34.0036C104.6 37.1957 102.447 49.5216 102.1 51.147C104.394 53.1707 104.9 55.9746 105.083 56.9771C106.489 55.3369 106.809 52.5926 104.597 50.2738C104.925 48.7378 107.175 35.2566 98.6316 31.3739C90.2064 27.5516 82.7635 32.2629 78.184 36.6585C76.8881 37.9022 75.8239 39.1217 75.0286 40.1149Z" fill="white"/>
</g>
<path d="M73.4071 42.3872C73.4071 42.3872 73.3253 44.8029 75.5318 46.6824C77.7383 48.5618 79.7123 48.4808 79.7123 48.4808C81.2109 45.9479 82.6398 43.9334 83.9887 42.3612C81.2109 42.2839 77.2528 41.4182 78.1849 36.6585C75.2453 39.4819 73.4899 42.1731 73.4071 42.3872Z" fill="#289853"/>
<path d="M72.7214 42.1285C72.8358 41.8557 73.0479 41.529 73.2024 41.2739C76.7103 35.9865 81.5625 31.251 87.7579 29.3045C91.6426 28.0878 96.0352 28.4108 99.7087 30.2391C105.908 33.326 107.102 41.0263 106.532 47.2093C106.431 48.3375 106.294 49.409 106.032 50.5819L105.659 49.261C106.446 50.096 107.125 51.1358 107.448 52.346C108.352 55.4337 106.417 59.0773 103.199 59.7875C100.072 60.3852 96.9245 58.4266 95.7617 55.5166C94.7208 53.0218 96.0612 50.2179 98.2464 48.8691L97.6166 49.8502C97.8669 46.7699 97.8696 43.3722 96.1031 40.9025C94.1226 38.4533 91.0844 38.1759 88.4723 39.913C85.0583 42.0764 82.6378 45.5011 80.3429 48.857C79.8359 49.6231 78.6545 48.9315 79.0806 48.1104C81.6946 43.3526 85.6221 36.7963 91.6212 36.1C95.0436 35.7845 98.4734 38.0391 99.7348 41.1836C100.937 44.182 100.987 47.2223 100.508 50.3371C100.434 50.7458 100.198 51.0883 99.8799 51.3062C99.3125 51.7009 98.7794 52.184 98.519 52.7909C97.7245 54.6927 99.8194 56.6895 101.659 56.9418C103.69 57.2927 105.178 54.9432 104.616 53.113C104.444 52.4633 104.054 51.8424 103.533 51.2866C103.192 50.9217 103.072 50.4218 103.163 49.9666C103.324 49.0245 103.434 47.9577 103.499 46.9794C103.738 42.337 103.334 36.6744 99.4901 33.6248C90.3458 27.4883 79.8806 34.9234 74.2415 42.4552L74.1363 42.6032L74.0926 42.6684L74.0777 42.6907C73.7912 43.4224 72.4293 43.1897 72.7205 42.1304L72.7214 42.1285Z" fill="#371A45"/>
<path d="M2.60353 15.235C4.40356 18.2865 8.77849 16.8613 9.98502 13.578C11.0818 12.7337 31.9388 3.12127 35.8979 22.6952C36.3565 24.9712 36.5881 27.6438 36.5333 30.7707L44.5324 31.116C44.6375 30.8935 44.618 27.2314 43.4533 22.6328C42.0468 17.0847 38.9677 10.1858 32.4216 6.34961C22.3684 0.459852 8.4557 8.46739 7.20359 9.09295C3.95518 8.6936 0.342111 11.4081 2.60353 15.235Z" fill="#5CC367"/>
<path d="M2.60353 15.235C4.40356 18.2865 8.77849 16.8613 9.98502 13.578C11.0818 12.7337 31.9388 3.12127 35.8979 22.6952C36.3565 24.9712 36.5881 27.6438 36.5333 30.7707L44.5324 31.116C44.6375 30.8935 44.618 27.2314 43.4533 22.6328C42.0468 17.0847 38.9677 10.1858 32.4216 6.34961C22.3684 0.459852 8.4557 8.46739 7.20359 9.09295C3.95518 8.6936 0.342111 11.4081 2.60353 15.235Z" fill="#5CC367"/>
<g opacity="0.5">
<path d="M1.90674 12.7318C2.92815 12.1686 6.05749 10.7416 7.60448 11.8828C8.95613 11.2079 21.7423 2.75916 32.5843 9.1125C38.8644 12.7933 42.1844 19.0898 43.9091 24.6491C43.7807 24.0021 43.6319 23.3291 43.4542 22.6337C42.0477 17.0856 38.9686 10.1867 32.4225 6.35054C22.3684 0.45985 8.45566 8.46739 7.20355 9.09295C4.72631 8.78948 2.03325 10.2966 1.90674 12.7318Z" fill="white"/>
</g>
<path d="M35.8977 22.696C36.3563 24.9721 36.5879 27.6447 36.5331 30.7715C36.5331 30.7715 38.361 32.5719 40.8829 32.6436C43.4038 32.7152 44.5322 31.1169 44.5322 31.1169C44.6373 30.8944 44.6178 27.2323 43.4531 22.6337C42.401 25.6926 39.9229 27.5869 35.8977 22.696Z" fill="#289853"/>
<path d="M43.87 30.7967C43.7946 30.9754 43.8272 30.9261 43.8179 30.9242V30.8535L43.816 30.6701C43.1379 22.2706 39.8718 12.9803 32.5759 8.19367C26.0493 3.85664 17.6259 6.03958 10.9207 8.93559C9.91513 9.37497 8.84163 9.91023 7.85836 10.4045C7.59138 10.5414 7.30021 10.5861 7.02393 10.5488C5.89089 10.399 4.57553 10.8337 3.89738 11.5951C3.15505 12.433 3.24993 13.3741 3.79691 14.3673C4.96623 16.6117 8.00627 14.9678 8.60534 13.0734C8.71604 12.7318 8.95791 12.4869 9.24349 12.3045C10.0258 11.8055 10.8937 11.4313 11.7421 11.0785C21.8027 6.96582 33.3684 8.34633 36.4206 20.3139C37.3387 23.7908 37.4569 27.33 37.2643 30.7864C37.242 31.1914 36.8959 31.5014 36.4913 31.479C36.1052 31.4576 35.8057 31.1411 35.7982 30.7613C35.6085 20.2832 32.2056 10.5339 19.8929 12.1285C16.8064 12.5195 13.6966 13.3974 10.8798 14.7499C10.8724 14.7537 10.8482 14.7667 10.8528 14.763C10.8612 14.7574 10.8686 14.7509 10.8751 14.7434L11.3589 14.0853C10.6314 16.0327 9.03698 17.5752 6.99695 18.17C2.11224 19.733 -1.64873 13.2968 1.72991 9.61793C3.20342 8.04472 5.29647 7.40799 7.38021 7.63513C7.38114 7.63513 6.54392 7.77942 6.54858 7.77849C17.6241 1.61877 31.0456 -0.751285 39.4643 10.8644C43.5853 16.5801 45.4346 23.7265 45.3221 30.7017L45.3016 30.9503L45.2839 31.0946C45.177 32.2749 43.4504 31.9668 43.869 30.7967H43.87Z" fill="#371A45"/>
<path d="M61.8246 53.0124C61.8766 53.1763 61.9464 53.4416 62.0292 53.6352C62.1204 53.8391 62.2181 54.0253 62.3353 54.1826C62.5753 54.4944 62.8357 54.7001 63.166 54.8323C63.8106 55.1097 64.7399 55.1535 65.7297 55.0381C66.7167 54.9292 67.766 54.7085 68.8153 54.4088C69.8684 54.109 70.9335 53.7302 72.034 53.3783C74.2219 52.6522 76.5568 51.9419 79.0117 51.7474C81.4583 51.5305 83.9727 51.8916 86.2025 52.7965C86.5793 52.9491 86.7607 53.3792 86.6081 53.7562C86.4732 54.0886 86.1244 54.2691 85.7858 54.2031H85.7802C84.6909 53.9908 83.6025 53.8763 82.5225 53.854C81.4415 53.8447 80.369 53.9303 79.3076 54.1193C77.1801 54.486 75.1131 55.2419 72.9652 56.0425C71.8935 56.4521 70.7865 56.844 69.6312 57.1959C68.4712 57.5375 67.2683 57.8503 65.9576 57.9304C65.3055 57.9713 64.6255 57.9536 63.9232 57.8196C63.2246 57.6837 62.4878 57.4277 61.8339 56.9529C61.1827 56.481 60.6571 55.7781 60.4292 55.0371C60.3101 54.6685 60.2469 54.2971 60.2404 53.934C60.2338 53.5589 60.2636 53.2452 60.3687 52.8346C60.4673 52.4483 60.8599 52.2147 61.2459 52.3133C61.4953 52.3766 61.6813 52.5638 61.7548 52.7928L61.8246 53.0124Z" fill="#371A45"/>
<path d="M52.2095 49.2907C52.07 49.6221 51.937 49.8614 51.7481 50.123C51.5677 50.3799 51.3472 50.6173 51.0867 50.8351C50.577 51.2745 49.8188 51.5984 49.0104 51.6012C48.1983 51.6059 47.4681 51.2959 46.9016 50.931C46.3276 50.5596 45.8839 50.1183 45.5034 49.665C44.7313 48.7294 44.2671 47.8292 43.7462 46.9449L42.2755 44.3235C41.3052 42.6116 40.3024 40.9769 39.0829 39.5601C37.8661 38.1424 36.4131 36.9778 34.693 36.1614L34.6847 36.1577C34.3172 35.9827 34.16 35.5433 34.3349 35.1747C34.4856 34.8563 34.8354 34.6962 35.1647 34.7716C37.2642 35.2501 39.2364 36.4081 40.7982 37.8994C42.3787 39.386 43.6132 41.1361 44.6988 42.8806C45.2513 43.7491 45.749 44.6326 46.2551 45.4862C46.7602 46.3314 47.2802 47.1981 47.7611 47.8423C48.2579 48.5209 48.7974 48.9798 49.1788 49.0999C49.3779 49.1744 49.6281 49.1809 49.9602 49.0738C50.123 49.0208 50.2923 48.9342 50.4691 48.8365C50.6365 48.7425 50.8309 48.5963 50.9705 48.5088L51.1546 48.3934C51.4942 48.1802 51.9435 48.2826 52.1565 48.6224C52.2868 48.83 52.2979 49.0813 52.2105 49.2917L52.2095 49.2907Z" fill="#371A45"/>
<path d="M56.7762 93.0809C56.4246 94.1719 55.6785 95.0767 54.739 95.7581C53.7985 96.4377 52.5771 96.8715 51.2645 96.8249C50.9389 96.7849 50.6087 96.7635 50.2915 96.6853C49.9808 96.582 49.6552 96.5075 49.3677 96.3604C49.0877 96.204 48.7891 96.0681 48.5435 95.8764C48.3026 95.6818 48.0589 95.4872 47.8431 95.2778C47.6468 95.0553 47.4626 94.8254 47.2803 94.5992C47.1063 94.3683 46.9844 94.116 46.8477 93.8721L46.6533 93.5063C46.6012 93.3816 46.5593 93.2503 46.5137 93.1237C46.4226 92.8696 46.3398 92.6145 46.2691 92.3585C46.1602 91.9601 46.3947 91.5486 46.7919 91.4397C47.0589 91.3662 47.3314 91.4481 47.5147 91.6296L47.5714 91.6864C48.2365 92.3464 48.8319 92.972 49.4691 93.3676C50.1082 93.7567 50.7045 93.9271 51.3277 93.9224C51.9566 93.9085 52.632 93.6934 53.3473 93.3955C54.0664 93.0911 54.7864 92.6806 55.5883 92.2217L55.6636 92.1789C56.032 91.9685 56.5008 92.096 56.712 92.4646C56.8227 92.6592 56.8394 92.8845 56.7762 93.0828V93.0809Z" fill="#371A45"/>
</g>
<defs>
<linearGradient id="paint0_linear_12_6384" x1="92.5447" y1="219.677" x2="217.55" y2="305.933" gradientUnits="userSpaceOnUse">
<stop stop-color="#FF7A00"/>
<stop offset="1" stop-color="#994900"/>
</linearGradient>
<linearGradient id="paint1_linear_12_6384" x1="81.1244" y1="175.987" x2="268.822" y2="240.524" gradientUnits="userSpaceOnUse">
<stop stop-color="#FF7A00"/>
<stop offset="1" stop-color="#994900"/>
</linearGradient>
<clipPath id="clip0_12_6384">
<rect width="302" height="257" fill="white" transform="translate(0.437012 0.632996)"/>
</clipPath>
</defs>
</svg>
