<svg width="944" height="108" viewBox="0 0 944 108" fill="none" xmlns="http://www.w3.org/2000/svg">
<rect width="944" height="108" fill="white"/>
<path d="M32 69.52H68V33.52H32V69.52ZM93.0208 48.0156C92.9014 46.8991 92.3986 46.0298 91.5122 45.4077C90.6344 44.7855 89.4924 44.4744 88.0861 44.4744C87.0975 44.4744 86.2495 44.6236 85.5421 44.9219C84.8347 45.2202 84.2935 45.625 83.9185 46.1364C83.5435 46.6477 83.3517 47.2315 83.3432 47.8878C83.3432 48.4332 83.4668 48.9062 83.7139 49.3068C83.9696 49.7074 84.3148 50.0483 84.7495 50.3295C85.1841 50.6023 85.6657 50.8324 86.1941 51.0199C86.7225 51.2074 87.2551 51.3651 87.7921 51.4929L90.2466 52.1065C91.2353 52.3366 92.1855 52.6477 93.0975 53.0398C94.0179 53.4318 94.8404 53.9261 95.5648 54.5227C96.2978 55.1193 96.8773 55.8395 97.3034 56.6832C97.7296 57.527 97.9426 58.5156 97.9426 59.6491C97.9426 61.1832 97.5506 62.5341 96.7665 63.7017C95.9824 64.8608 94.8489 65.7685 93.3659 66.4247C91.8915 67.0724 90.106 67.3963 88.0094 67.3963C85.9725 67.3963 84.204 67.081 82.704 66.4503C81.2125 65.8196 80.0449 64.8991 79.2012 63.6889C78.3659 62.4787 77.9142 61.0043 77.846 59.2656H82.5122C82.5804 60.1776 82.8617 60.9361 83.356 61.5412C83.8503 62.1463 84.4938 62.598 85.2864 62.8963C86.0875 63.1946 86.9824 63.3438 87.9711 63.3438C89.0023 63.3438 89.9057 63.1903 90.6813 62.8835C91.4654 62.5682 92.079 62.1335 92.5222 61.5795C92.9654 61.017 93.1912 60.3608 93.1997 59.6108C93.1912 58.929 92.9909 58.3665 92.5989 57.9233C92.2068 57.4716 91.6571 57.0966 90.9497 56.7983C90.2509 56.4915 89.4327 56.2187 88.4952 55.9801L85.5165 55.2131C83.3603 54.6591 81.6557 53.8196 80.4029 52.6946C79.1586 51.5611 78.5364 50.0568 78.5364 48.1818C78.5364 46.6392 78.954 45.2884 79.7892 44.1293C80.633 42.9702 81.7793 42.071 83.2282 41.4318C84.677 40.7841 86.3176 40.4602 88.15 40.4602C90.008 40.4602 91.6358 40.7841 93.0336 41.4318C94.4398 42.071 95.5435 42.9616 96.3446 44.1037C97.1458 45.2372 97.5591 46.5412 97.5847 48.0156H93.0208ZM101.606 74.3636V47.3636H106.158V50.6108H106.426C106.665 50.1335 107.001 49.6264 107.436 49.0895C107.871 48.544 108.459 48.0795 109.2 47.696C109.942 47.304 110.888 47.108 112.038 47.108C113.555 47.108 114.923 47.4957 116.142 48.2713C117.369 49.0384 118.341 50.1761 119.057 51.6847C119.781 53.1847 120.143 55.0256 120.143 57.2074C120.143 59.3636 119.79 61.196 119.082 62.7045C118.375 64.2131 117.412 65.3636 116.193 66.1562C114.974 66.9489 113.594 67.3452 112.051 67.3452C110.926 67.3452 109.993 67.1577 109.251 66.7827C108.51 66.4077 107.913 65.956 107.462 65.4276C107.018 64.8906 106.673 64.3835 106.426 63.9062H106.234V74.3636H101.606ZM106.145 57.1818C106.145 58.4517 106.324 59.5639 106.682 60.5185C107.048 61.473 107.572 62.2187 108.254 62.7557C108.945 63.2841 109.78 63.5483 110.76 63.5483C111.783 63.5483 112.639 63.2756 113.329 62.7301C114.02 62.1761 114.54 61.4219 114.889 60.4673C115.247 59.5043 115.426 58.4091 115.426 57.1818C115.426 55.9631 115.251 54.8807 114.902 53.9347C114.552 52.9886 114.033 52.2472 113.342 51.7102C112.652 51.1733 111.791 50.9048 110.76 50.9048C109.771 50.9048 108.932 51.1648 108.241 51.6847C107.551 52.2045 107.027 52.9332 106.669 53.8707C106.32 54.8082 106.145 55.9119 106.145 57.1818ZM129.397 67.3963C128.153 67.3963 127.032 67.1747 126.035 66.7315C125.046 66.2798 124.262 65.6151 123.683 64.7372C123.111 63.8594 122.826 62.777 122.826 61.4901C122.826 60.3821 123.031 59.4659 123.44 58.7415C123.849 58.017 124.407 57.4375 125.114 57.0028C125.822 56.5682 126.619 56.2401 127.505 56.0185C128.4 55.7884 129.325 55.6222 130.279 55.5199C131.43 55.4006 132.363 55.294 133.079 55.2003C133.795 55.098 134.315 54.9446 134.638 54.7401C134.971 54.527 135.137 54.1989 135.137 53.7557V53.679C135.137 52.7159 134.852 51.9702 134.281 51.4418C133.71 50.9134 132.887 50.6491 131.813 50.6491C130.68 50.6491 129.781 50.8963 129.116 51.3906C128.46 51.8849 128.016 52.4687 127.786 53.142L123.465 52.5284C123.806 51.3352 124.369 50.3381 125.153 49.5369C125.937 48.7273 126.896 48.1222 128.029 47.7216C129.163 47.3125 130.415 47.108 131.788 47.108C132.734 47.108 133.675 47.2188 134.613 47.4403C135.55 47.6619 136.407 48.0284 137.183 48.5398C137.958 49.0426 138.58 49.7287 139.049 50.598C139.526 51.4673 139.765 52.554 139.765 53.858V67H135.316V64.3026H135.163C134.881 64.848 134.485 65.3594 133.974 65.8366C133.471 66.3054 132.836 66.6847 132.069 66.9744C131.31 67.2557 130.42 67.3963 129.397 67.3963ZM130.599 63.9957C131.528 63.9957 132.333 63.8125 133.015 63.446C133.697 63.071 134.221 62.5767 134.587 61.9631C134.962 61.3494 135.15 60.6804 135.15 59.956V57.642C135.005 57.7614 134.758 57.8722 134.408 57.9744C134.067 58.0767 133.684 58.1662 133.258 58.2429C132.832 58.3196 132.41 58.3878 131.992 58.4474C131.575 58.5071 131.212 58.5582 130.906 58.6009C130.215 58.6946 129.597 58.848 129.052 59.0611C128.506 59.2741 128.076 59.5724 127.761 59.956C127.445 60.331 127.288 60.8168 127.288 61.4134C127.288 62.2656 127.599 62.9091 128.221 63.3438C128.843 63.7784 129.636 63.9957 130.599 63.9957ZM152.624 67.3835C150.663 67.3835 148.98 66.9531 147.574 66.0923C146.176 65.2315 145.098 64.0426 144.34 62.5256C143.59 61 143.215 59.2443 143.215 57.2585C143.215 55.2642 143.598 53.5043 144.365 51.9787C145.132 50.4446 146.215 49.2514 147.612 48.3991C149.019 47.5384 150.68 47.108 152.598 47.108C154.192 47.108 155.602 47.402 156.83 47.9901C158.065 48.5696 159.05 49.392 159.783 50.4574C160.516 51.5142 160.933 52.75 161.036 54.1648H156.612C156.433 53.2187 156.007 52.4304 155.334 51.7997C154.669 51.1605 153.778 50.8409 152.662 50.8409C151.716 50.8409 150.885 51.0966 150.169 51.608C149.453 52.1108 148.895 52.8352 148.494 53.7812C148.102 54.7273 147.906 55.8608 147.906 57.1818C147.906 58.5199 148.102 59.6705 148.494 60.6335C148.886 61.5881 149.436 62.3253 150.144 62.8452C150.859 63.3565 151.699 63.6122 152.662 63.6122C153.344 63.6122 153.953 63.4844 154.49 63.2287C155.036 62.9645 155.492 62.5852 155.858 62.0909C156.225 61.5966 156.476 60.9957 156.612 60.2884H161.036C160.925 61.6776 160.516 62.9091 159.808 63.983C159.101 65.0483 158.138 65.8835 156.919 66.4886C155.7 67.0852 154.269 67.3835 152.624 67.3835ZM173.169 67.3835C171.2 67.3835 169.5 66.9744 168.068 66.1562C166.645 65.3295 165.55 64.1619 164.782 62.6534C164.015 61.1364 163.632 59.3509 163.632 57.2969C163.632 55.277 164.015 53.5043 164.782 51.9787C165.558 50.4446 166.64 49.2514 168.03 48.3991C169.419 47.5384 171.051 47.108 172.926 47.108C174.136 47.108 175.278 47.304 176.352 47.696C177.434 48.0795 178.389 48.6761 179.216 49.4858C180.051 50.2955 180.707 51.3267 181.184 52.5795C181.662 53.8239 181.9 55.3068 181.9 57.0284V58.4474H165.805V55.3281H177.464C177.456 54.4418 177.264 53.6534 176.889 52.9631C176.514 52.2642 175.99 51.7145 175.317 51.3139C174.652 50.9134 173.876 50.7131 172.99 50.7131C172.044 50.7131 171.213 50.9432 170.497 51.4034C169.781 51.8551 169.223 52.4517 168.822 53.1932C168.43 53.9261 168.23 54.7315 168.221 55.6094V58.3324C168.221 59.4744 168.43 60.4545 168.848 61.2727C169.265 62.0824 169.849 62.7045 170.599 63.1392C171.349 63.5653 172.227 63.7784 173.233 63.7784C173.906 63.7784 174.515 63.6847 175.061 63.4972C175.606 63.3011 176.079 63.0156 176.48 62.6406C176.88 62.2656 177.183 61.8011 177.388 61.2472L181.709 61.733C181.436 62.875 180.916 63.8722 180.149 64.7244C179.39 65.5682 178.419 66.2244 177.234 66.6932C176.05 67.1534 174.694 67.3835 173.169 67.3835ZM200.975 52.554L196.757 53.0142C196.637 52.5881 196.429 52.1875 196.13 51.8125C195.84 51.4375 195.448 51.1349 194.954 50.9048C194.46 50.6747 193.855 50.5597 193.139 50.5597C192.176 50.5597 191.366 50.7685 190.71 51.1861C190.062 51.6037 189.742 52.1449 189.751 52.8097C189.742 53.3807 189.951 53.8452 190.377 54.2031C190.812 54.5611 191.528 54.8551 192.525 55.0852L195.875 55.8011C197.732 56.2017 199.113 56.8366 200.017 57.706C200.929 58.5753 201.389 59.7131 201.397 61.1193C201.389 62.3551 201.027 63.446 200.311 64.392C199.603 65.3295 198.619 66.0625 197.357 66.5909C196.096 67.1193 194.647 67.3835 193.011 67.3835C190.607 67.3835 188.673 66.8807 187.207 65.875C185.741 64.8608 184.867 63.4503 184.586 61.6435L189.099 61.2088C189.304 62.0952 189.738 62.7642 190.403 63.2159C191.068 63.6676 191.933 63.8935 192.998 63.8935C194.098 63.8935 194.98 63.6676 195.644 63.2159C196.318 62.7642 196.654 62.206 196.654 61.5412C196.654 60.9787 196.437 60.5142 196.002 60.1477C195.576 59.7812 194.911 59.5 194.008 59.304L190.659 58.6009C188.775 58.2088 187.382 57.5483 186.478 56.6193C185.575 55.6818 185.127 54.4972 185.136 53.0653C185.127 51.8551 185.455 50.8068 186.12 49.9205C186.794 49.0256 187.727 48.3352 188.92 47.8494C190.122 47.3551 191.507 47.108 193.075 47.108C195.376 47.108 197.187 47.598 198.508 48.5781C199.838 49.5582 200.66 50.8835 200.975 52.554ZM209.481 55.4943V67H204.853V40.8182H209.379V50.7003H209.609C210.069 49.5923 210.781 48.7187 211.744 48.0795C212.716 47.4318 213.951 47.108 215.451 47.108C216.815 47.108 218.004 47.3935 219.018 47.9645C220.032 48.5355 220.816 49.3707 221.37 50.4702C221.933 51.5696 222.214 52.9119 222.214 54.4972V67H217.586V55.2131C217.586 53.892 217.245 52.8651 216.564 52.1321C215.89 51.3906 214.944 51.0199 213.725 51.0199C212.907 51.0199 212.174 51.1989 211.527 51.5568C210.887 51.9062 210.385 52.4134 210.018 53.0781C209.66 53.7429 209.481 54.5483 209.481 55.4943ZM226.571 67V47.3636H231.199V67H226.571ZM228.898 44.5767C228.165 44.5767 227.534 44.3338 227.006 43.848C226.478 43.3537 226.213 42.7614 226.213 42.071C226.213 41.3722 226.478 40.7798 227.006 40.294C227.534 39.7997 228.165 39.5526 228.898 39.5526C229.64 39.5526 230.27 39.7997 230.79 40.294C231.319 40.7798 231.583 41.3722 231.583 42.071C231.583 42.7614 231.319 43.3537 230.79 43.848C230.27 44.3338 229.64 44.5767 228.898 44.5767ZM235.598 74.3636V47.3636H240.149V50.6108H240.418C240.656 50.1335 240.993 49.6264 241.428 49.0895C241.862 48.544 242.45 48.0795 243.192 47.696C243.933 47.304 244.879 47.108 246.03 47.108C247.547 47.108 248.915 47.4957 250.134 48.2713C251.361 49.0384 252.333 50.1761 253.048 51.6847C253.773 53.1847 254.135 55.0256 254.135 57.2074C254.135 59.3636 253.781 61.196 253.074 62.7045C252.367 64.2131 251.404 65.3636 250.185 66.1562C248.966 66.9489 247.585 67.3452 246.043 67.3452C244.918 67.3452 243.985 67.1577 243.243 66.7827C242.502 66.4077 241.905 65.956 241.453 65.4276C241.01 64.8906 240.665 64.3835 240.418 63.9062H240.226V74.3636H235.598ZM240.136 57.1818C240.136 58.4517 240.315 59.5639 240.673 60.5185C241.04 61.473 241.564 62.2187 242.246 62.7557C242.936 63.2841 243.771 63.5483 244.752 63.5483C245.774 63.5483 246.631 63.2756 247.321 62.7301C248.012 62.1761 248.531 61.4219 248.881 60.4673C249.239 59.5043 249.418 58.4091 249.418 57.1818C249.418 55.9631 249.243 54.8807 248.894 53.9347C248.544 52.9886 248.024 52.2472 247.334 51.7102C246.644 51.1733 245.783 50.9048 244.752 50.9048C243.763 50.9048 242.923 51.1648 242.233 51.6847C241.543 52.2045 241.019 52.9332 240.661 53.8707C240.311 54.8082 240.136 55.9119 240.136 57.1818ZM274.873 67.3835C272.913 67.3835 271.23 66.9531 269.823 66.0923C268.426 65.2315 267.348 64.0426 266.589 62.5256C265.839 61 265.464 59.2443 265.464 57.2585C265.464 55.2642 265.848 53.5043 266.615 51.9787C267.382 50.4446 268.464 49.2514 269.862 48.3991C271.268 47.5384 272.93 47.108 274.848 47.108C276.441 47.108 277.852 47.402 279.079 47.9901C280.315 48.5696 281.299 49.392 282.032 50.4574C282.765 51.5142 283.183 52.75 283.285 54.1648H278.862C278.683 53.2187 278.257 52.4304 277.583 51.7997C276.919 51.1605 276.028 50.8409 274.912 50.8409C273.966 50.8409 273.135 51.0966 272.419 51.608C271.703 52.1108 271.144 52.8352 270.744 53.7812C270.352 54.7273 270.156 55.8608 270.156 57.1818C270.156 58.5199 270.352 59.6705 270.744 60.6335C271.136 61.5881 271.686 62.3253 272.393 62.8452C273.109 63.3565 273.948 63.6122 274.912 63.6122C275.593 63.6122 276.203 63.4844 276.74 63.2287C277.285 62.9645 277.741 62.5852 278.108 62.0909C278.474 61.5966 278.725 60.9957 278.862 60.2884H283.285C283.174 61.6776 282.765 62.9091 282.058 63.983C281.35 65.0483 280.387 65.8835 279.169 66.4886C277.95 67.0852 276.518 67.3835 274.873 67.3835ZM295.291 67.3835C293.373 67.3835 291.711 66.9616 290.305 66.1179C288.898 65.2741 287.808 64.0937 287.032 62.5767C286.265 61.0597 285.881 59.2869 285.881 57.2585C285.881 55.2301 286.265 53.4531 287.032 51.9276C287.808 50.402 288.898 49.2173 290.305 48.3736C291.711 47.5298 293.373 47.108 295.291 47.108C297.208 47.108 298.87 47.5298 300.276 48.3736C301.683 49.2173 302.769 50.402 303.536 51.9276C304.312 53.4531 304.7 55.2301 304.7 57.2585C304.7 59.2869 304.312 61.0597 303.536 62.5767C302.769 64.0937 301.683 65.2741 300.276 66.1179C298.87 66.9616 297.208 67.3835 295.291 67.3835ZM295.316 63.6761C296.356 63.6761 297.225 63.3906 297.924 62.8196C298.623 62.2401 299.143 61.4645 299.484 60.4929C299.833 59.5213 300.008 58.4389 300.008 57.2457C300.008 56.044 299.833 54.9574 299.484 53.9858C299.143 53.0057 298.623 52.2259 297.924 51.6463C297.225 51.0668 296.356 50.777 295.316 50.777C294.251 50.777 293.364 51.0668 292.657 51.6463C291.958 52.2259 291.434 53.0057 291.085 53.9858C290.744 54.9574 290.573 56.044 290.573 57.2457C290.573 58.4389 290.744 59.5213 291.085 60.4929C291.434 61.4645 291.958 62.2401 292.657 62.8196C293.364 63.3906 294.251 63.6761 295.316 63.6761ZM312.895 55.4943V67H308.268V47.3636H312.691V50.7003H312.921C313.373 49.6009 314.093 48.7273 315.081 48.0795C316.079 47.4318 317.31 47.108 318.776 47.108C320.131 47.108 321.312 47.3977 322.317 47.9773C323.331 48.5568 324.116 49.3963 324.67 50.4957C325.232 51.5952 325.509 52.929 325.5 54.4972V67H320.873V55.2131C320.873 53.9006 320.532 52.8736 319.85 52.1321C319.177 51.3906 318.243 51.0199 317.05 51.0199C316.241 51.0199 315.52 51.1989 314.89 51.5568C314.268 51.9062 313.777 52.4134 313.42 53.0781C313.07 53.7429 312.895 54.5483 312.895 55.4943ZM339.791 47.3636V50.9432H328.183V47.3636H339.791ZM331.085 67V45.5099C331.085 44.1889 331.358 43.0895 331.903 42.2116C332.457 41.3338 333.199 40.6776 334.128 40.2429C335.057 39.8082 336.088 39.5909 337.221 39.5909C338.023 39.5909 338.734 39.6548 339.356 39.7827C339.979 39.9105 340.439 40.0256 340.737 40.1278L339.817 43.7074C339.621 43.6477 339.373 43.5881 339.075 43.5284C338.777 43.4602 338.444 43.4261 338.078 43.4261C337.217 43.4261 336.608 43.6349 336.25 44.0526C335.9 44.4616 335.726 45.0497 335.726 45.8168V67H331.085ZM343.055 67V47.3636H347.683V67H343.055ZM345.382 44.5767C344.649 44.5767 344.018 44.3338 343.49 43.848C342.962 43.3537 342.697 42.7614 342.697 42.071C342.697 41.3722 342.962 40.7798 343.49 40.294C344.018 39.7997 344.649 39.5526 345.382 39.5526C346.124 39.5526 346.754 39.7997 347.274 40.294C347.802 40.7798 348.067 41.3722 348.067 42.071C348.067 42.7614 347.802 43.3537 347.274 43.848C346.754 44.3338 346.124 44.5767 345.382 44.5767ZM360.622 74.7727C358.96 74.7727 357.532 74.5469 356.339 74.0952C355.146 73.652 354.187 73.0554 353.463 72.3054C352.738 71.5554 352.235 70.7244 351.954 69.8125L356.122 68.8026C356.309 69.1861 356.582 69.5653 356.94 69.9403C357.298 70.3239 357.78 70.6392 358.385 70.8864C358.998 71.142 359.77 71.2699 360.699 71.2699C362.011 71.2699 363.098 70.9503 363.958 70.3111C364.819 69.6804 365.25 68.6406 365.25 67.1918V63.4716H365.02C364.781 63.9489 364.431 64.4389 363.971 64.9418C363.52 65.4446 362.919 65.8665 362.169 66.2074C361.427 66.5483 360.494 66.7188 359.369 66.7188C357.86 66.7188 356.493 66.3651 355.265 65.6577C354.047 64.9418 353.075 63.8764 352.351 62.4616C351.635 61.0384 351.277 59.2571 351.277 57.1179C351.277 54.9616 351.635 53.142 352.351 51.6591C353.075 50.1676 354.051 49.0384 355.278 48.2713C356.505 47.4957 357.873 47.108 359.382 47.108C360.532 47.108 361.478 47.304 362.22 47.696C362.97 48.0795 363.566 48.544 364.01 49.0895C364.453 49.6264 364.789 50.1335 365.02 50.6108H365.275V47.3636H369.839V67.3196C369.839 68.9986 369.439 70.3878 368.637 71.4872C367.836 72.5866 366.741 73.4091 365.352 73.9545C363.963 74.5 362.386 74.7727 360.622 74.7727ZM360.66 63.0881C361.64 63.0881 362.476 62.8494 363.166 62.3722C363.856 61.8949 364.38 61.2088 364.738 60.3139C365.096 59.419 365.275 58.3452 365.275 57.0923C365.275 55.8565 365.096 54.7741 364.738 53.8452C364.389 52.9162 363.869 52.196 363.179 51.6847C362.497 51.1648 361.657 50.9048 360.66 50.9048C359.629 50.9048 358.768 51.1733 358.078 51.7102C357.387 52.2472 356.868 52.9844 356.518 53.9219C356.169 54.8509 355.994 55.9077 355.994 57.0923C355.994 58.294 356.169 59.3466 356.518 60.25C356.876 61.1449 357.4 61.8437 358.091 62.3466C358.789 62.8409 359.646 63.0881 360.66 63.0881ZM386.738 58.7415V47.3636H391.366V67H386.878V63.5099H386.674C386.231 64.6094 385.502 65.5085 384.488 66.2074C383.482 66.9062 382.242 67.2557 380.768 67.2557C379.481 67.2557 378.343 66.9702 377.354 66.3991C376.374 65.8196 375.607 64.9801 375.053 63.8807C374.499 62.7727 374.222 61.4347 374.222 59.8665V47.3636H378.85V59.1506C378.85 60.3949 379.191 61.3835 379.873 62.1165C380.554 62.8494 381.449 63.2159 382.557 63.2159C383.239 63.2159 383.9 63.0497 384.539 62.7173C385.178 62.3849 385.702 61.8906 386.111 61.2344C386.529 60.5696 386.738 59.7386 386.738 58.7415ZM395.764 67V47.3636H400.252V50.6364H400.456C400.814 49.5028 401.428 48.6293 402.297 48.0156C403.175 47.3935 404.176 47.0824 405.301 47.0824C405.557 47.0824 405.843 47.0952 406.158 47.1207C406.482 47.1378 406.75 47.1676 406.963 47.2102V51.4673C406.767 51.3991 406.456 51.3395 406.03 51.2884C405.612 51.2287 405.208 51.1989 404.816 51.1989C403.972 51.1989 403.213 51.3821 402.54 51.7486C401.875 52.1065 401.351 52.6051 400.968 53.2443C400.584 53.8835 400.392 54.6207 400.392 55.456V67H395.764ZM414.977 67.3963C413.733 67.3963 412.612 67.1747 411.615 66.7315C410.626 66.2798 409.842 65.6151 409.262 64.7372C408.691 63.8594 408.406 62.777 408.406 61.4901C408.406 60.3821 408.61 59.4659 409.019 58.7415C409.429 58.017 409.987 57.4375 410.694 57.0028C411.402 56.5682 412.198 56.2401 413.085 56.0185C413.98 55.7884 414.904 55.6222 415.859 55.5199C417.01 55.4006 417.943 55.294 418.659 55.2003C419.375 55.098 419.894 54.9446 420.218 54.7401C420.551 54.527 420.717 54.1989 420.717 53.7557V53.679C420.717 52.7159 420.431 51.9702 419.86 51.4418C419.289 50.9134 418.467 50.6491 417.393 50.6491C416.26 50.6491 415.36 50.8963 414.696 51.3906C414.039 51.8849 413.596 52.4687 413.366 53.142L409.045 52.5284C409.386 51.3352 409.948 50.3381 410.733 49.5369C411.517 48.7273 412.475 48.1222 413.609 47.7216C414.742 47.3125 415.995 47.108 417.367 47.108C418.313 47.108 419.255 47.2188 420.193 47.4403C421.13 47.6619 421.987 48.0284 422.762 48.5398C423.538 49.0426 424.16 49.7287 424.629 50.598C425.106 51.4673 425.345 52.554 425.345 53.858V67H420.896V64.3026H420.742C420.461 64.848 420.065 65.3594 419.554 65.8366C419.051 66.3054 418.416 66.6847 417.649 66.9744C416.89 67.2557 416 67.3963 414.977 67.3963ZM416.179 63.9957C417.108 63.9957 417.913 63.8125 418.595 63.446C419.277 63.071 419.801 62.5767 420.167 61.9631C420.542 61.3494 420.73 60.6804 420.73 59.956V57.642C420.585 57.7614 420.338 57.8722 419.988 57.9744C419.647 58.0767 419.264 58.1662 418.838 58.2429C418.411 58.3196 417.99 58.3878 417.572 58.4474C417.154 58.5071 416.792 58.5582 416.485 58.6009C415.795 58.6946 415.177 58.848 414.632 59.0611C414.086 59.2741 413.656 59.5724 413.34 59.956C413.025 60.331 412.867 60.8168 412.867 61.4134C412.867 62.2656 413.179 62.9091 413.801 63.3438C414.423 63.7784 415.215 63.9957 416.179 63.9957ZM439.444 47.3636V50.9432H428.155V47.3636H439.444ZM430.942 42.6591H435.57V61.0938C435.57 61.7159 435.664 62.1932 435.851 62.5256C436.047 62.8494 436.303 63.071 436.618 63.1903C436.934 63.3097 437.283 63.3693 437.667 63.3693C437.956 63.3693 438.221 63.348 438.459 63.3054C438.706 63.2628 438.894 63.2244 439.022 63.1903L439.802 66.8082C439.554 66.8935 439.201 66.9872 438.74 67.0895C438.289 67.1918 437.735 67.2514 437.078 67.2685C435.919 67.3026 434.875 67.1278 433.946 66.7443C433.017 66.3523 432.28 65.7472 431.735 64.929C431.198 64.1108 430.934 63.0881 430.942 61.8608V42.6591ZM451.308 67.3835C449.391 67.3835 447.729 66.9616 446.323 66.1179C444.916 65.2741 443.825 64.0937 443.05 62.5767C442.283 61.0597 441.899 59.2869 441.899 57.2585C441.899 55.2301 442.283 53.4531 443.05 51.9276C443.825 50.402 444.916 49.2173 446.323 48.3736C447.729 47.5298 449.391 47.108 451.308 47.108C453.226 47.108 454.888 47.5298 456.294 48.3736C457.7 49.2173 458.787 50.402 459.554 51.9276C460.33 53.4531 460.717 55.2301 460.717 57.2585C460.717 59.2869 460.33 61.0597 459.554 62.5767C458.787 64.0937 457.7 65.2741 456.294 66.1179C454.888 66.9616 453.226 67.3835 451.308 67.3835ZM451.334 63.6761C452.374 63.6761 453.243 63.3906 453.942 62.8196C454.641 62.2401 455.161 61.4645 455.502 60.4929C455.851 59.5213 456.026 58.4389 456.026 57.2457C456.026 56.044 455.851 54.9574 455.502 53.9858C455.161 53.0057 454.641 52.2259 453.942 51.6463C453.243 51.0668 452.374 50.777 451.334 50.777C450.269 50.777 449.382 51.0668 448.675 51.6463C447.976 52.2259 447.452 53.0057 447.102 53.9858C446.761 54.9574 446.591 56.044 446.591 57.2457C446.591 58.4389 446.761 59.5213 447.102 60.4929C447.452 61.4645 447.976 62.2401 448.675 62.8196C449.382 63.3906 450.269 63.6761 451.334 63.6761ZM464.285 67V47.3636H468.773V50.6364H468.977C469.335 49.5028 469.949 48.6293 470.818 48.0156C471.696 47.3935 472.697 47.0824 473.822 47.0824C474.078 47.0824 474.363 47.0952 474.679 47.1207C475.003 47.1378 475.271 47.1676 475.484 47.2102V51.4673C475.288 51.3991 474.977 51.3395 474.551 51.2884C474.133 51.2287 473.729 51.1989 473.336 51.1989C472.493 51.1989 471.734 51.3821 471.061 51.7486C470.396 52.1065 469.872 52.6051 469.488 53.2443C469.105 53.8835 468.913 54.6207 468.913 55.456V67H464.285Z" fill="#1A1C22"/>
<g clip-path="url(#clip0_12_3302)">
<path d="M868.07 55.5129C868.07 48.0496 885.284 40.9567 891.879 39.4437C891.879 39.4437 890.877 37.0818 890.501 36.8896C890.376 36.8267 879.161 39.1817 868.44 49.0874C864.413 52.8085 861.162 56.6031 857.288 59.9818C857.288 59.9818 850.977 66.334 846.731 66.6101C846.731 66.6101 845.91 66.7184 844.954 66.2886C843.472 65.6317 840.91 62.7352 839.723 60.6457C837.53 62.0643 835.679 65.1006 835.611 65.2369C835.533 65.3697 835.395 65.6806 835.306 65.8204C835.213 65.9602 834.46 66.1838 834.204 65.9637L834.243 65.5828C834.695 62.9727 834.957 60.9951 838.291 57.5919C838.291 57.5919 836.944 54.3739 837.157 50.5863C837.456 45.2858 839.2 41.4983 841.596 40.0832C841.596 40.0832 844.527 38.3885 846.713 37.239C846.713 37.239 847.381 36.6765 848.603 36.7463C849.822 36.8162 851.649 37.8295 854.236 39.9888C856.802 42.1656 859.339 44.5905 859.723 46.4843C859.723 46.4843 859.936 47.2669 859.584 47.9972L856.762 52.1761C856.126 53.116 852.676 53.8323 847.534 56.3096C847.534 56.3096 847.068 56.5087 846.923 56.5786C846.923 56.5786 848.451 58.8637 849.694 59.2236C850.938 59.5835 852.875 58.6646 857.317 54.4752C858.585 53.2732 863.507 48.392 867.1 45.3976C867.1 45.3976 876.609 36.8791 885.842 34.29C885.842 34.29 887.416 33.7904 888.621 34.1083C890.867 34.7093 893.041 35.6212 894.385 36.1279C895.383 36.638 896.037 37.0957 896.833 38.2034C902.665 36.963 909.338 36.5262 909.338 36.5262L911.332 37.2739C912.128 37.5674 912.146 37.826 911.773 37.9378C911.669 37.9658 903.841 39.0769 898.23 40.8938C899.662 44.4123 900.227 47.4521 900.291 53.1649C900.376 61.079 897.089 73.8183 884.239 74C878.806 74.0734 872.366 68.717 869.243 64.3913C869.243 64.3913 868.639 63.4969 868.518 62.7841C868.518 62.7841 868.077 58.2907 868.077 55.5129H868.07ZM882.256 66.6345C890.582 67.0119 893.45 57.6303 893.646 50.9078C893.646 47.9448 893.351 45.0203 892.86 42.6059C880.646 47.3194 872.939 53.2069 870.401 58.3606C875.913 66.4633 882.253 66.6345 882.253 66.6345H882.256ZM844.94 53.0881C847.463 51.8127 853.308 49.8386 855.142 49.2446L855.195 49.1782C854.2 47.7386 852.814 46.2607 850.927 44.8281C850.927 44.8281 846.883 41.6904 845.181 40.8903L845.131 40.8623C844.403 42.5639 843.898 44.7617 843.874 46.3201C843.874 46.3201 843.529 49.7652 844.94 53.0915" fill="#00973A"/>
<path d="M798.128 43.3893C798.211 43.3907 798.292 43.392 798.369 43.392V43.3955H801.116V41.1838C799.603 41.03 796.088 40.8064 794.713 41.1628C794.683 41.1731 794.647 41.1844 794.606 41.1972C793.954 41.4028 792.008 42.0155 792.008 45.5339V47.1027H790.004V49.6359H792.008V66.5821H796.056V49.6359H800.025V47.1027H796.056V44.9259C796.056 43.3544 797.238 43.3743 798.128 43.3893Z" fill="#00973A"/>
<path d="M803.657 41.2187H807.691V44.4123H803.657V41.2187Z" fill="#00973A"/>
<path d="M825.7 66.0442L825.7 66.0475V66.044L825.7 66.0442Z" fill="#00973A"/>
<path d="M825.153 63.5597L825.7 66.0442C825.543 66.0827 825.387 66.122 825.23 66.1615C823.66 66.5556 821.983 66.9769 819.005 66.9769C818.817 66.9769 818.412 66.9315 817.822 66.8197C817.225 66.7114 816.61 66.4319 815.96 65.9462C815.317 65.478 814.741 64.7722 814.251 63.8393C813.746 62.8889 813.487 61.5926 813.487 59.9224V49.6569H811.177V47.1097H813.487L814.268 43.6646H817.587V47.1097H824.723V49.6569H817.587V59.9923C817.587 62.7177 818.7 64.0769 820.939 64.0769C821.703 64.0769 824.691 63.6401 825.153 63.5597Z" fill="#00973A"/>
<path d="M726 42.84V66.6345H743.377V63.4968L730.602 63.4934L730.684 55.7924H741.913V53.0042H730.684V46.0825H743.107V42.84H726Z" fill="#00973A"/>
<path fill-rule="evenodd" clip-rule="evenodd" d="M783.924 66.3131C784.802 66.1384 785.722 65.8973 786.671 65.5933L786.682 65.5898L786.667 65.5758V63.0042C786.344 63.1055 785.829 63.2278 785.136 63.3396C784.436 63.4619 783.647 63.5912 782.755 63.71C781.852 63.8288 780.889 63.9301 779.88 64.0105C778.857 64.0838 777.862 64.1258 776.909 64.1258C776.415 64.1258 775.548 64.0489 775.132 63.8672C774.734 63.696 774.383 63.4549 774.07 63.1649C773.775 62.8609 773.537 62.5255 773.384 62.1621C773.213 61.7743 773.132 61.3899 773.132 60.9776V58.434H785.704C786.17 58.434 786.554 58.2662 786.866 57.9238C787.186 57.5954 787.343 57.1272 787.343 56.4982V52.5849C787.343 51.963 787.257 51.334 787.058 50.6911C786.863 50.0377 786.543 49.4472 786.06 48.9161C785.58 48.3815 784.937 47.9308 784.119 47.6024C783.299 47.2739 782.264 47.1027 781.01 47.1027H775.779C774.582 47.1027 773.562 47.2879 772.712 47.6478C771.874 48.0147 771.181 48.4968 770.633 49.1188C770.1 49.7477 769.688 50.45 769.432 51.2397C769.166 52.0328 769.045 52.8714 769.045 53.7589V59.9888C769.045 61.6485 769.308 62.9553 769.855 63.8882C770.395 64.8386 771.021 65.5374 771.71 66.0126C772.41 66.4878 773.071 66.7778 773.714 66.8861C774.358 66.9874 774.777 67.0398 774.958 67.0398C776.547 67.0398 779.418 66.9734 780.69 66.8267C781.955 66.6834 783.032 66.5157 783.924 66.3131ZM782.869 50.5409C783.338 51.0824 783.572 51.7743 783.572 52.6303V56.072H773.128V52.6303C773.128 51.7778 773.373 51.0859 773.832 50.5409C774.29 50.0063 775.04 49.7407 776.078 49.7407H780.63C781.66 49.7407 782.399 50.0063 782.869 50.5409Z" fill="#00973A"/>
<path d="M807.652 47.1132H803.618V66.6345H807.652V47.1132Z" fill="#00973A"/>
<path d="M757.741 47.0468L750.694 48.13L750.079 47.0678H746.76V66.638H750.868V50.8239C760.742 48.4971 760.726 51.166 760.713 53.3056C760.712 53.383 760.712 53.4596 760.712 53.5353V66.638H764.809L764.884 53.7449C764.884 46.9874 760.587 46.6625 757.737 47.0503L757.741 47.0468Z" fill="#00973A"/>
</g>
<defs>
<clipPath id="clip0_12_3302">
<rect width="186" height="40" fill="white" transform="translate(726 34)"/>
</clipPath>
</defs>
</svg>
